<svg version="1.2" xmlns="http://www.w3.org/2000/svg" viewBox="0 0 145 35" width="146" height="35">
	<title>logo01-svg</title>
	<style>
		.s0 { fill: #000000 } 
	</style>
	<g id="Folder 1">
		<path class="s0" d="m34 12.4l-8.8-8.8c-0.6-0.6-1.5-1-2.3-1h-1.1c-0.3 0-0.5-0.2-0.5-0.5v-0.9c0-0.7-0.5-1.2-1.2-1.2h-5.3c-0.6 0-1.2 0.5-1.2 1.2v21.9c0 0.5-0.5 0.7-0.9 0.4q-2.6-2.6-5.1-5.2c-0.5-0.5-0.5-1.2 0-1.7q2.3-2.3 4.6-4.6c0.2-0.2 0.3-0.5 0.3-0.8v-8.3c0-0.2-0.1-0.3-0.2-0.3h-0.2c-0.9 0-1.7 0.4-2.4 1q-4.4 4.4-8.7 8.8c-0.6 0.6-1 1.4-1 2.3v5.5c0 0.9 0.4 1.7 1 2.4l8.8 8.8c0.6 0.6 1.5 1 2.3 1h1c0.3 0 0.5 0.2 0.5 0.5v0.8c0 0.7 0.6 1.2 1.2 1.2q2.7 0 5.3 0c0.6 0 1.2-0.5 1.2-1.2v-21.8c0-0.5 0.6-0.8 0.9-0.4l5.2 5.1c0.4 0.5 0.4 1.2 0 1.7q-2.4 2.3-4.7 4.6c-0.2 0.2-0.3 0.5-0.3 0.9v8.4c0 0.1 0.1 0.2 0.2 0.2h0.2c0.8 0 1.7-0.4 2.3-1q4.4-4.4 8.8-8.8c0.7-0.7 1-1.5 1-2.4v-5.5c0-0.9-0.3-1.7-1-2.3z"/>
		<path class="s0" d="m46.8 12.8q4.2 0 8.4 0c0.5 0 0.9-0.3 0.9-0.8v-3.9c0-0.5-0.4-0.9-0.9-0.9h-13.5c-0.5 0-0.9 0.4-0.9 0.9v18.8c0 0.4 0.4 0.8 0.9 0.8h3.9c0.5 0 0.9-0.4 0.9-0.9v-6.2c0-0.2 0.1-0.3 0.3-0.3h8.4c0.5 0 0.9-0.4 0.9-0.9v-3.9c0-0.5-0.4-0.9-0.9-0.9q-4.2 0-8.4 0c-0.2 0-0.3-0.1-0.3-0.4v-1c0-0.2 0.1-0.4 0.3-0.4z"/>
		<path class="s0" d="m58.6 7.2h3.9c0.5 0 0.9 0.4 0.9 0.9v18.8c0 0.4-0.4 0.8-0.9 0.8h-3.9c-0.5 0-0.9-0.4-0.9-0.8v-18.8c0-0.5 0.4-0.9 0.9-0.9z"/>
		<path fill-rule="evenodd" class="s0" d="m82 8.1v18.7c0 0.5-0.4 0.9-0.9 0.9q-2 0-3.9 0c-0.5 0-0.9-0.4-0.9-0.9v-6.1c0-0.3-0.2-0.4-0.4-0.4h-4.9c-0.2 0-0.4 0.2-0.4 0.4q0 3 0 6.2c0 0.4-0.3 0.8-0.8 0.8h-4c-0.4 0-0.8-0.4-0.8-0.8v-18.8c0-0.5 0.4-0.9 0.8-0.9h15.3c0.5 0 0.9 0.4 0.9 0.9zm-5.7 5.1c0-0.2-0.2-0.3-0.4-0.3h-4.9c-0.2 0-0.4 0.1-0.4 0.3q0 0.6 0 1.1c0 0.2 0.2 0.4 0.4 0.4h4.9c0.2 0 0.4-0.2 0.4-0.4z"/>
		<path fill-rule="evenodd" class="s0" d="m100.5 8.1v11.3c0 0.5-0.3 0.9-0.8 0.9h-10.1c-0.2 0-0.4 0.2-0.4 0.4v6.2c0 0.4-0.4 0.8-0.8 0.8h-4c-0.4 0-0.8-0.4-0.8-0.8v-18.8c0-0.5 0.4-0.9 0.8-0.9h15.3c0.5 0 0.8 0.4 0.8 0.9zm-5.6 5.1c0-0.2-0.2-0.3-0.4-0.3h-4.9c-0.2 0-0.4 0.1-0.4 0.3v1.1c0 0.2 0.2 0.4 0.4 0.4h4.9c0.2 0 0.4-0.2 0.4-0.4q0-0.5 0-1.1z"/>
		<path class="s0" d="m108.3 20.3h8.5c0.4 0 0.8-0.4 0.8-0.9v-3.9c0-0.5-0.4-0.9-0.8-0.9h-8.5c-0.2 0-0.3-0.1-0.3-0.3v-1.1c0-0.2 0.1-0.4 0.3-0.4h8.5c0.4 0 0.8-0.3 0.8-0.8v-3.9c0-0.5-0.4-0.9-0.8-0.9h-13.6c-0.5 0-0.9 0.4-0.9 0.9v18.8c0 0.4 0.4 0.8 0.9 0.8h13.6c0.4 0 0.8-0.4 0.8-0.9q0-1.9 0-3.9c0-0.4-0.4-0.8-0.8-0.8h-8.5c-0.2 0-0.3-0.2-0.3-0.4v-1.1c0-0.2 0.1-0.3 0.3-0.3z"/>
		<path class="s0" d="m132.9 17.9c-0.2-0.2-0.2-0.6 0-0.9q3-4.2 5.9-8.4c0.4-0.6 0-1.4-0.7-1.4h-4.8c-0.3 0-0.5 0.1-0.7 0.4l-2.7 3.9c-0.4 0.5-1.1 0.5-1.4 0l-2.8-3.9c-0.1-0.3-0.4-0.4-0.7-0.4h-4.8c-0.6 0-1.1 0.8-0.7 1.4q3 4.2 5.9 8.4c0.2 0.3 0.2 0.7 0 1q-2.9 4.2-5.9 8.4c-0.4 0.5 0.1 1.3 0.7 1.3h4.8c0.3 0 0.6-0.1 0.7-0.4q1.4-1.9 2.8-3.9c0.3-0.5 1-0.5 1.4 0l2.7 3.9c0.2 0.3 0.4 0.4 0.7 0.4h4.8c0.7 0 1.1-0.8 0.7-1.3q-2.9-4.2-5.9-8.4z"/>
		<path class="s0" d="m140.4 5.5h0.7v1.7h0.6v-1.7h0.7v-0.6h-2zm4-0.6l-0.6 1.2-0.6-1.2h-0.6v2.3h0.6v-1.3l0.5 1h0.2l0.5-1v1.3h0.6v-2.3z"/>
	</g>
</svg>